<?xml version="1.0" encoding="UTF-8"?>
<svg id="Layer_2" data-name="Layer 2" xmlns="http://www.w3.org/2000/svg" viewBox="0 0 595.15 147.95">
  <defs>
    <style>
      .cls-1 {
        fill: #fff;
        stroke-width: 0px;
      }
    </style>
  </defs>
  <g id="Layer_1-2" data-name="Layer 1">
    <g>
      <path class="cls-1" d="M273.16,74.16c-.14,13.08-2.27,25.74-8.23,37.54-8.3,16.44-21.54,27-39.03,32.36-11.92,3.65-24.13,4.39-36.5,3.23-9.97-.94-19.52-3.37-28.43-8.01-15.87-8.26-26.3-21.17-31.41-38.15-5.99-19.92-5.71-39.88,1.85-59.39,6.84-17.63,19.36-29.86,37.14-36.27,19.34-6.98,39.06-7.23,58.6-1.03,22.49,7.14,36.51,22.71,42.89,45.3,2.25,7.98,3.06,16.16,3.13,24.43h0ZM237.76,71.54c.04-3.37-.58-9.24-2.18-14.97-3.37-12.05-10.36-20.87-22.61-24.81-6.45-2.08-13.09-2.38-19.78-1.57-13.84,1.68-23.75,8.8-28.55,21.94-5.29,14.48-5.2,29.26-.02,43.78,3.69,10.33,10.97,17.32,21.58,20.54,6.19,1.87,12.55,2.24,18.95,1.48,13.41-1.59,23.15-8.26,28.5-20.87,3.11-7.33,4.07-15.06,4.11-25.53h0Z"/>
      <path class="cls-1" d="M455.47,145.4h-33.78V2.67c.64-.03,1.25-.09,1.87-.09,6.56,0,13.12-.05,19.67.04,1.07.02,2.3.38,3.19.98,21.3,14.56,42.57,29.18,63.84,43.79.52.35,1.05.7,1.86,1.23V2.68h33.72v142.73h-33.67v-2.04c0-18.11-.01-36.21.02-54.31,0-1.33-.32-2.17-1.5-2.96-17.87-12.08-35.7-24.23-53.53-36.36-.48-.32-.96-.62-1.69-1.09v96.78h0Z"/>
      <path class="cls-1" d="M283.85,2.67h33.73v2.31c.02,26.75-.01,53.51.08,80.26.02,6.18,1.04,12.24,3.5,17.98,3.46,8.09,9.48,12.98,18.19,14.47,5.46.94,10.89.77,16.18-.91,8.08-2.57,12.8-8.42,15.44-16.21,2.17-6.41,2.61-13.06,2.61-19.74.03-25.24.01-50.49.01-75.73v-2.39h33.8v1.92c0,25.59.02,51.19-.01,76.78-.02,11.33-1.35,22.45-5.77,33.02-6.91,16.55-19.21,26.9-36.55,31.05-15.69,3.76-31.33,3.43-46.54-2.37-15.82-6.04-25.7-17.73-30.87-33.63-2.86-8.8-3.89-17.87-3.89-27.09,0-26.06,0-52.11,0-78.17,0-.46.04-.92.07-1.55h0Z"/>
      <path class="cls-1" d="M0,2.57h2.09c11.2,0,22.4.03,33.6-.03,1.41,0,2.14.42,2.75,1.71,9.86,20.78,19.76,41.55,29.67,62.31.21.45.47.88.8,1.48,3.39-7.3,6.61-14.42,9.98-21.47,6.84-14.27,13.77-28.49,20.63-42.74.43-.9.94-1.28,1.97-1.27,11.61.04,23.21.02,34.82.03.39,0,.77.08,1.36.14-.41.8-.74,1.46-1.1,2.1-16.65,30.14-33.3,60.28-49.9,90.45-.61,1.1-.96,2.5-.96,3.76-.07,14.74-.04,29.48-.04,44.23v2.15h-33.82v-2c0-14.86.02-29.71-.04-44.57,0-1.15-.32-2.43-.87-3.44C34.37,65.15,17.74,34.94,1.12,4.71c-.33-.59-.63-1.2-1.12-2.14h0Z"/>
      <path class="cls-1" d="M595.15,2.72v142.63h-33.62V2.72h33.62Z"/>
    </g>
  </g>
</svg>