<?xml version="1.0" encoding="UTF-8"?>
<svg id="Layer_2" data-name="Layer 2" xmlns="http://www.w3.org/2000/svg" viewBox="0 0 15 12">
  <defs>
    <style>
      .cls-1 {
        fill: #fff;
        stroke-width: 0px;
      }
    </style>
  </defs>
  <g id="Layer_1-2" data-name="Layer 1">
    <path class="cls-1" d="M10.5,11.19c0,.45-.36.81-.81.81H.81c-.45,0-.81-.36-.81-.81,0-2.24,1.82-4.06,4.06-4.06h2.38c2.24,0,4.06,1.82,4.06,4.06ZM2.25,3c0-1.66,1.34-3,3-3s3,1.34,3,3-1.34,3-3,3-3-1.34-3-3ZM15,5.25c0,.31-.25.56-.56.56h-1.12v1.12c0,.31-.25.56-.56.56s-.56-.25-.56-.56v-1.12h-1.12c-.31,0-.56-.25-.56-.56s.25-.56.56-.56h1.12v-1.12c0-.31.25-.56.56-.56s.56.25.56.56v1.12h1.12c.31,0,.56.25.56.56Z"/>
  </g>
</svg>